<svg width="19" height="20" viewBox="0 0 19 20" fill="none" xmlns="http://www.w3.org/2000/svg">
<path fill-rule="evenodd" clip-rule="evenodd" d="M15.7897 3.57492C14.9581 2.73781 13.9686 2.07404 12.8786 1.62207C11.7886 1.1701 10.6197 0.938924 9.43972 0.941923C4.49172 0.941923 0.463719 4.96892 0.461719 9.91892C0.461719 11.5009 0.874718 13.0449 1.65972 14.4069L0.386719 19.0579L5.14572 17.8089C6.46211 18.5255 7.93692 18.9013 9.43572 18.9019H9.43972C14.3867 18.9019 18.4147 14.8749 18.4167 9.92492C18.4201 8.74541 18.1897 7.57692 17.7388 6.48698C17.2879 5.39705 16.6254 4.4073 15.7897 3.57492ZM9.43972 17.3869H9.43672C8.10024 17.3871 6.78835 17.0275 5.63872 16.3459L5.36672 16.1839L2.54272 16.9249L3.29572 14.1719L3.11872 13.8899C2.37151 12.7003 1.97595 11.3237 1.97772 9.91892C1.97972 5.80492 5.32672 2.45792 9.44272 2.45792C10.423 2.45575 11.3939 2.64801 12.2994 3.02357C13.2048 3.39914 14.0268 3.95057 14.7177 4.64592C15.4123 5.33797 15.9629 6.16082 16.3376 7.06692C16.7123 7.97302 16.9037 8.94441 16.9007 9.92492C16.8987 14.0389 13.5517 17.3869 9.43972 17.3869ZM13.5327 11.7979C13.3077 11.6849 12.2057 11.1429 11.9997 11.0679C11.7947 10.9929 11.6457 10.9559 11.4957 11.1799C11.3457 11.4039 10.9157 11.9089 10.7847 12.0589C10.6537 12.2089 10.5227 12.2269 10.2987 12.1149C10.0747 12.0029 9.35172 11.7659 8.49472 11.0019C7.82772 10.4069 7.37772 9.67292 7.24672 9.44792C7.11572 9.22292 7.23272 9.10192 7.34572 8.98992C7.44672 8.88992 7.56972 8.72792 7.68172 8.59692C7.79372 8.46592 7.83072 8.37292 7.90572 8.22292C7.98072 8.07292 7.94372 7.94192 7.88672 7.82992C7.83072 7.71692 7.38172 6.61292 7.19472 6.16392C7.01372 5.72892 6.82872 5.78692 6.69072 5.78092C6.5478 5.77508 6.40476 5.77241 6.26172 5.77292C6.14797 5.77582 6.03606 5.80219 5.93298 5.85037C5.8299 5.89855 5.73789 5.96751 5.66272 6.05292C5.45672 6.27792 4.87772 6.81992 4.87772 7.92392C4.87772 9.02792 5.68172 10.0949 5.79372 10.2449C5.90572 10.3949 7.37572 12.6599 9.62572 13.6319C10.1617 13.8629 10.5797 14.0009 10.9047 14.1049C11.4417 14.2759 11.9307 14.2509 12.3177 14.1939C12.7487 14.1299 13.6447 13.6519 13.8317 13.1279C14.0187 12.6039 14.0187 12.1549 13.9627 12.0609C13.9067 11.9669 13.7557 11.9099 13.5327 11.7979Z" fill="black"/>
</svg>
